<svg xmlns="http://www.w3.org/2000/svg" width="600" height="200" viewBox="0 0 600 200">
  <defs>
    <style>
      .cls-1 {
        fill: #ff2c2c;
        fill-rule: evenodd;
      }
    </style>
  </defs>
  <path id="Forma_1" data-name="Forma 1" class="cls-1" d="M273,81L172,80a35.976,35.976,0,0,0,10,18c14.333,13.625,35.4,9.745,45,6a52.146,52.146,0,0,0,17-11l20,24h-1c-5.354,8.39-17.549,15.474-32.058,19.293A84.569,84.569,0,0,1,185,136c-18.243-5.4-29.094-13.846-36-22-16.339-19.293-16.729-43.728-15-57a64.9,64.9,0,0,1,4-16c7.332-17.967,23.107-29.266,36-35,20.371-9.06,41.818-7.2,58-1,11.328,4.343,19.172,10.067,24.145,15.184C271.4,35.885,276.407,58.675,273,81Zm156,0L328,80a30.6,30.6,0,0,0,5,12c10.766,15.214,34.425,16.821,49,12a47.26,47.26,0,0,0,12-6,45.865,45.865,0,0,0,6-5l20,24h-1a76.8,76.8,0,0,1-29.987,18.42c-12.5,4.114-27.964,5.34-46.013.58-21.531-5.679-35.761-15.9-44.155-28.651A62.137,62.137,0,0,1,290,86a74.016,74.016,0,0,1,5-46,65.626,65.626,0,0,1,17-23c26.621-22.487,76.678-23.842,102.315,5.932C428.013,38.841,432.076,60.482,429,81Zm65,119H454V2h38V17A59.671,59.671,0,0,1,554,2c23.05,7.554,39.961,25.578,46,50,4.745,32.8-7.062,61.9-28.587,75.949C560.848,134.846,547.705,137.977,535,138c-13.863.025-23.852-3.4-30.444-7.145A53.731,53.731,0,0,1,494,123v77ZM2,2H118V27c-5.324,6.362-10.636,12.671-16,19C85.1,65.945,68.291,85.388,51,105h69v31H0V111L67,33H2V2ZM237,57a26.625,26.625,0,0,0-3-10c-7.694-14.27-29.386-21.185-45-14-4.97,2.287-11.713,7.06-15,15a26.908,26.908,0,0,0-2,9h65Zm91,0h64C388.234,22.327,332.132,21.368,328,57ZM519,33a27.991,27.991,0,0,0-11,4,33.18,33.18,0,0,0-11,13,40.974,40.974,0,0,0-4,20c0.325,9.948,3.355,17.21,6,21,7.117,10.2,20.95,16.978,35,14a34.354,34.354,0,0,0,22-16c2.31-3.845,4.853-10.833,5-20,0.137-8.548-1.946-15.131-4-19a33.64,33.64,0,0,0-22-17A34.316,34.316,0,0,0,519,33ZM172,167h26v4H187v29h-4V171H172v-4Zm30,0h23v4H207v11h16v4H207v10h19v4H202V167Zm30,0h5v29h17v4H232V167Zm26,0h22v4H262v11h17v4H262v10h19v4H258V167Zm41,1a19.934,19.934,0,0,1,12,2,18.254,18.254,0,0,1,3,2l-2,3a13.047,13.047,0,0,0-7-4,12.731,12.731,0,0,0-5,0,13.147,13.147,0,0,0-10,18,12.748,12.748,0,0,0,6,6,14.139,14.139,0,0,0,9,1,13.973,13.973,0,0,0,6-3l3,3a22.924,22.924,0,0,1-3.139,1.826A20.18,20.18,0,0,1,302,200a18.74,18.74,0,0,1-6-1,15.352,15.352,0,0,1-5.3-2.806A16.342,16.342,0,0,1,285,182,15.572,15.572,0,0,1,299,168Zm41,1a15.6,15.6,0,0,1,9,21,17.548,17.548,0,0,1-4.323,5.727A17.275,17.275,0,0,1,333,200c-5.33-.132-12.264-2.968-15.173-9.982A16.206,16.206,0,0,1,320,174C324.393,168.355,332.5,166.107,340,169Zm17-1h3l13,23,9-15,5-8h3v32h-4V175l-13,22-12-20v23h-4V168Zm-26,3a13.872,13.872,0,0,0-10,11,11.142,11.142,0,0,0,6,12c2.376,1.909,5.487,2.056,10,2a13.123,13.123,0,0,0,5-22,11.941,11.941,0,0,0-3-2,12.7,12.7,0,0,0-3-1A12.845,12.845,0,0,0,331,171Z"/>
</svg>
